<?xml version="1.0" encoding="utf-8"?>
<!-- Generator: Adobe Illustrator 28.1.0, SVG Export Plug-In . SVG Version: 6.00 Build 0)  -->
<svg version="1.1" id="Layer_1" xmlns="http://www.w3.org/2000/svg" xmlns:xlink="http://www.w3.org/1999/xlink" x="0px" y="0px"
	 viewBox="0 0 595.28 198.43" style="enable-background:new 0 0 595.28 198.43;" xml:space="preserve">
<style type="text/css">
	.st0{fill:#000456;}
	.st1{fill:url(#SVGID_1_);}
	.st2{fill:url(#SVGID_00000062871737279362665250000001679621799608745650_);}
	.st3{fill:url(#SVGID_00000018221936219537277970000011981841322583754415_);}
	.st4{fill:url(#SVGID_00000105396405938945443210000013866780945864809617_);}
</style>
<g>
	<g>
		<path class="st0" d="M135.5,119.81V77.9H164v8.86h-18.32v8.08h17.78v8.86h-17.78v16.11H135.5z"/>
		<path class="st0" d="M187.59,99.15h-1.98c-5.39,0-7.6,2.22-7.6,8.08v12.57h-9.82V89.63h9.52v5.99c1.26-4.85,4.97-6.23,8.92-6.23
			h0.96V99.15z"/>
		<path class="st0" d="M222.55,104.72c0,8.14-6.05,15.81-16.77,15.81s-16.77-7.66-16.77-15.81c0-8.14,6.05-15.81,16.77-15.81
			S222.55,96.58,222.55,104.72z M212.97,104.72c0-4.01-2.4-7.66-7.19-7.66s-7.19,3.65-7.19,7.66s2.4,7.66,7.19,7.66
			S212.97,108.73,212.97,104.72z"/>
		<path class="st0" d="M236.74,119.81h-9.82V89.63h9.52v4.49c1.32-2.87,4.91-5.21,9.1-5.21c7.24,0,10.84,4.97,10.84,12.15v18.74
			h-9.82v-17.12c0-3.11-1.5-5.27-4.79-5.27c-3.05,0-5.03,1.86-5.03,5.21V119.81z"/>
		<path class="st0" d="M280.45,111.91v7.78c-1.02,0.42-3.77,0.84-5.81,0.84c-7.25,0-10.54-4.31-10.54-10.96V97.72h-5.21v-8.08h5.21
			v-9.04h9.82v9.04h6.83v8.08h-6.83v11.26c0,2.34,1.08,3.41,3.41,3.41C278.53,112.38,279.49,112.21,280.45,111.91z"/>
		<path class="st0" d="M311.7,77.9c16.77,0,25.63,9.04,25.63,20.96c0,11.92-8.86,20.96-25.63,20.96h-13.23V77.9H311.7z
			 M310.74,111.25c10.48,0,16.41-4.19,16.41-12.39c0-8.2-5.93-12.39-16.41-12.39h-2.1v24.79H310.74z"/>
		<path class="st0" d="M374.03,104.72c0,8.14-6.05,15.81-16.76,15.81s-16.77-7.66-16.77-15.81c0-8.14,6.05-15.81,16.77-15.81
			S374.03,96.58,374.03,104.72z M364.45,104.72c0-4.01-2.39-7.66-7.18-7.66s-7.19,3.65-7.19,7.66s2.4,7.66,7.19,7.66
			S364.45,108.73,364.45,104.72z"/>
		<path class="st0" d="M410.31,104.72c0,8.14-6.05,15.81-16.76,15.81s-16.77-7.66-16.77-15.81c0-8.14,6.05-15.81,16.77-15.81
			S410.31,96.58,410.31,104.72z M400.73,104.72c0-4.01-2.39-7.66-7.18-7.66s-7.19,3.65-7.19,7.66s2.4,7.66,7.19,7.66
			S400.73,108.73,400.73,104.72z"/>
		<path class="st0" d="M434.08,99.15h-1.98c-5.39,0-7.6,2.22-7.6,8.08v12.57h-9.82V89.63h9.52v5.99c1.26-4.85,4.97-6.23,8.92-6.23
			h0.96V99.15z"/>
		<path class="st0" d="M451.08,119.81V77.9h28.5v8.86h-18.32v8.08h17.78v8.86h-17.78v16.11H451.08z"/>
		<path class="st0" d="M506.76,94.12v-4.49h9.64v30.18h-9.46v-4.49c-1.68,2.87-5.15,5.21-9.7,5.21c-8.74,0-15.09-6.83-15.09-15.81
			s6.35-15.81,15.09-15.81C501.79,88.91,505.38,91.07,506.76,94.12z M506.58,104.72c0-4.43-3.05-7.66-7.37-7.66
			c-4.25,0-7.24,3.29-7.24,7.66s2.99,7.66,7.24,7.66C503.52,112.38,506.58,109.15,506.58,104.72z"/>
		<path class="st0" d="M540.46,104.72L551,119.81h-10.3l-5.39-7.84l-5.33,7.84h-10.3l10.54-15.09l-10.42-15.09h10.18l5.33,7.9
			l5.39-7.9h10.18L540.46,104.72z"/>
	</g>
	<g>
		<linearGradient id="SVGID_1_" gradientUnits="userSpaceOnUse" x1="111.6972" y1="54.2839" x2="55.2602" y2="110.7209">
			<stop  offset="0" style="stop-color:#345AFF"/>
			<stop  offset="1" style="stop-color:#00FFFF"/>
		</linearGradient>
		<path class="st1" d="M92.96,73.72v26.59L79.24,86.31l-0.14,0.14l-0.12-0.14l-14.01,14.01v12.6H45.65V94.02
			c0.3-0.92,0.8-1.78,1.51-2.47l7.78-7.78l10.31-10.33l9.62-9.34c1.17-1.17,2.68-1.78,4.23-1.81h0.02c1.53,0.04,3.05,0.64,4.23,1.81
			L92.96,73.72z"/>
		
			<linearGradient id="SVGID_00000015340974438399263880000010092506373999824787_" gradientUnits="userSpaceOnUse" x1="46.9412" y1="112.7694" x2="96.8088" y2="62.9019">
			<stop  offset="0" style="stop-color:#00FFFF"/>
			<stop  offset="1" style="stop-color:#345AFF"/>
		</linearGradient>
		<path style="fill:url(#SVGID_00000015340974438399263880000010092506373999824787_);" d="M92.95,73.72v14.06L79.44,74.27
			c-0.11-0.11-0.23-0.2-0.35-0.27c-0.12,0.07-0.23,0.16-0.34,0.27L55.8,97.23c-0.2,0.18-0.34,0.41-0.44,0.66
			c-0.11,0.23-0.16,0.5-0.16,0.76v14.27h-9.55V94.02c0.3-0.92,0.8-1.78,1.51-2.47l7.78-7.78l10.31-10.33l9.62-9.34
			c1.17-1.17,2.68-1.78,4.23-1.81h0.02c1.53,0.04,3.05,0.64,4.22,1.81L92.95,73.72z"/>
		
			<linearGradient id="SVGID_00000163048627961292543540000017784499172059942058_" gradientUnits="userSpaceOnUse" x1="62.4063" y1="129.6981" x2="113.3449" y2="78.7595">
			<stop  offset="0" style="stop-color:#345AFF"/>
			<stop  offset="1" style="stop-color:#00FFFF"/>
		</linearGradient>
		<path style="fill:url(#SVGID_00000163048627961292543540000017784499172059942058_);" d="M117.69,89.15h-5.13v13.11
			c0,9.76-4.64,18.44-11.81,23.97c-0.02,0.02-0.02,0.02-0.04,0.04c-2.34,1.79-4.95,3.27-7.76,4.31c-3.32,1.26-6.91,1.94-10.67,1.94
			l-14.1-0.02c-0.3,0-0.59-0.04-0.88-0.11c-0.53,0-1.04-0.06-1.54-0.23c-0.34-0.08-0.65-0.23-0.96-0.39
			c-0.16-0.09-0.3-0.18-0.46-0.27c-0.29-0.19-0.55-0.41-0.8-0.65v-0.02l-7.65-7.65l-0.61-0.61l-9.64-9.64h28.8v-7.55
			c0-2.48,2-4.49,4.49-4.49c2.5,0,4.51,2.01,4.51,4.49v7.23c2.36-0.54,4.46-1.74,6.09-3.38c2.09-2.09,3.23-4.92,3.39-8.04
			c0.04-0.29,0.04-0.58,0.04-0.87V65.08c0-0.57,0.16-1.09,0.42-1.49c0.06-0.08,0.11-0.16,0.17-0.23c0.05-0.06,0.12-0.12,0.18-0.19
			l0.19-0.19c0.25-0.21,0.53-0.38,0.83-0.5c0.94-0.36,2.08-0.21,2.92,0.64c0.02,0,0.02,0,0.04,0.02l5.57,5.56l16.19,16.19
			C121.05,86.45,119.92,89.15,117.69,89.15z"/>
		
			<linearGradient id="SVGID_00000041266776175907555900000005475514347995847602_" gradientUnits="userSpaceOnUse" x1="66.1797" y1="133.4578" x2="139.2196" y2="60.4179">
			<stop  offset="0" style="stop-color:#345AFF"/>
			<stop  offset="1" style="stop-color:#00FFFF"/>
		</linearGradient>
		<path style="fill:url(#SVGID_00000041266776175907555900000005475514347995847602_);" d="M117.69,89.15h-5.13v13.1
			c0,9.76-4.63,18.44-11.81,23.97c-0.02,0.02-0.02,0.02-0.04,0.04c-2.34,1.79-4.95,3.27-7.76,4.31c-3.32,1.26-6.91,1.93-10.67,1.93
			l-14.11-0.02c-0.3,0-0.59-0.04-0.87-0.11h0c-1.41,0-2.76-0.56-3.76-1.56l-7.66-7.66h25.78c0.11-0.02,0.23-0.02,0.36-0.02
			c0.23-0.02,0.44-0.04,0.67-0.05c3.41-0.25,6.6-1.26,9.41-2.88c0.28-0.18,0.57-0.34,0.85-0.51c0.91-0.57,1.78-1.22,2.57-1.94
			c0.28-0.23,0.55-0.46,0.82-0.73c0.25-0.25,0.5-0.5,0.75-0.76c0.5-0.51,0.96-1.05,1.38-1.6c0.23-0.28,0.44-0.57,0.64-0.85
			c0.04-0.02,0.04-0.04,0.05-0.05c0.48-0.64,0.91-1.31,1.3-2.02c0.05-0.12,0.12-0.23,0.18-0.36c0.05-0.11,0.12-0.23,0.16-0.34
			c0.21-0.37,0.39-0.73,0.57-1.12l0.16-0.36c0.12-0.32,0.25-0.62,0.34-0.94l0.02-0.02c0.05-0.12,0.09-0.25,0.14-0.37
			c0.23-0.66,0.44-1.33,0.6-2.02c0.02-0.07,0.04-0.16,0.05-0.25c0.04-0.12,0.07-0.27,0.09-0.39c0.04-0.16,0.07-0.32,0.11-0.48
			c0.04-0.16,0.05-0.32,0.07-0.48c0.07-0.34,0.11-0.67,0.16-1.03c0.02-0.12,0.02-0.27,0.04-0.39v-0.02
			c0.02-0.16,0.04-0.34,0.05-0.51c0-0.09,0.02-0.18,0.02-0.27c0-0.02,0-0.04,0-0.04c0.02-0.05,0.02-0.09,0.02-0.12
			c0-0.11,0-0.2,0.02-0.28v-0.02c0-0.14,0-0.28,0.02-0.43V68.68l16.19,16.19C121.04,86.45,119.92,89.15,117.69,89.15z"/>
	</g>
</g>
</svg>
